<?xml version="1.0" encoding="UTF-8" standalone="no"?>
<!DOCTYPE svg PUBLIC "-//W3C//DTD SVG 1.1//EN"
 "http://www.w3.org/Graphics/SVG/1.1/DTD/svg11.dtd">
<!-- Generated by graphviz version 2.36.0 (20140111.2315)
 -->
<!-- Title: %3 Pages: 1 -->
<svg width="3052pt" height="1178pt"
 viewBox="0.00 0.00 3052.00 1178.00" xmlns="http://www.w3.org/2000/svg" xmlns:xlink="http://www.w3.org/1999/xlink">
<g id="graph0" class="graph" transform="scale(1 1) rotate(0) translate(4 1174)">
<title>%3</title>
<polygon fill="white" stroke="none" points="-4,4 -4,-1174 3048,-1174 3048,4 -4,4"/>
<g id="clust20" class="cluster"><title>cluster&#45;nid&#45;14&#45;in</title>
<polygon fill="none" stroke="#cccccc" points="2170,-1078 2170,-1162 2354,-1162 2354,-1078 2170,-1078"/>
</g>
<g id="clust24" class="cluster"><title>cluster&#45;nid&#45;17&#45;in</title>
<polygon fill="none" stroke="#cccccc" points="2852,-805 2852,-889 3036,-889 3036,-805 2852,-805"/>
</g>
<g id="clust27" class="cluster"><title>cluster&#45;nid&#45;18&#45;out</title>
<polygon fill="none" stroke="#cccccc" points="360,-287 360,-371 542,-371 542,-287 360,-287"/>
</g>
<g id="clust29" class="cluster"><title>cluster&#45;nid&#45;19&#45;out</title>
<polygon fill="none" stroke="#cccccc" points="373,-805 373,-889 529,-889 529,-805 373,-805"/>
</g>
<g id="clust31" class="cluster"><title>cluster&#45;nid&#45;1a&#45;out</title>
<polygon fill="none" stroke="#cccccc" points="360,-713 360,-797 542,-797 542,-713 360,-713"/>
</g>
<g id="clust32" class="cluster"><title>cluster&#45;nid&#45;1b&#45;in</title>
<polygon fill="none" stroke="#cccccc" points="2171,-986 2171,-1070 2638,-1070 2638,-986 2171,-986"/>
</g>
<g id="clust33" class="cluster"><title>cluster&#45;nid&#45;1b&#45;out</title>
<polygon fill="none" stroke="#cccccc" points="48,-379 48,-463 542,-463 542,-379 48,-379"/>
</g>
<g id="clust36" class="cluster"><title>cluster&#45;nid&#45;1d&#45;out</title>
<polygon fill="none" stroke="#cccccc" points="358,-195 358,-279 544,-279 544,-195 358,-195"/>
</g>
<g id="clust37" class="cluster"><title>cluster&#45;nid&#45;1e&#45;in</title>
<polygon fill="none" stroke="#cccccc" points="360,-991 360,-1075 542,-1075 542,-991 360,-991"/>
</g>
<g id="clust41" class="cluster"><title>cluster&#45;nid&#45;21&#45;in</title>
<polygon fill="none" stroke="#cccccc" points="2174,-894 2174,-978 2350,-978 2350,-894 2174,-894"/>
</g>
<g id="clust43" class="cluster"><title>cluster&#45;nid&#45;22</title>
<polygon fill="none" stroke="#cccccc" points="1486,-462 1486,-844 1970,-844 1970,-462 1486,-462"/>
</g>
<g id="clust44" class="cluster"><title>cluster&#45;nid&#45;23</title>
<polygon fill="none" stroke="#cccccc" points="1486,-8 1486,-454 1970,-454 1970,-8 1486,-8"/>
</g>
<g id="clust5" class="cluster"><title>cluster&#45;nid&#45;06</title>
<polygon fill="none" stroke="#cccccc" points="8,-998 8,-1068 158,-1068 158,-998 8,-998"/>
</g>
<g id="clust2" class="cluster"><title>cluster&#45;nid&#45;03</title>
<polygon fill="none" stroke="#cccccc" points="790,-912 790,-982 1241,-982 1241,-912 790,-912"/>
</g>
<g id="clust1" class="cluster"><title>cluster&#45;nid&#45;02</title>
<polygon fill="none" stroke="#cccccc" points="790,-1046 790,-1116 1241,-1116 1241,-1046 790,-1046"/>
</g>
<g id="clust7" class="cluster"><title>cluster&#45;nid&#45;08</title>
<polygon fill="none" stroke="#cccccc" points="2227,-196 2227,-266 2648,-266 2648,-196 2227,-196"/>
</g>
<g id="clust8" class="cluster"><title>cluster&#45;nid&#45;09</title>
<polygon fill="none" stroke="#cccccc" points="2227,-618 2227,-688 2648,-688 2648,-618 2227,-618"/>
</g>
<g id="clust10" class="cluster"><title>cluster&#45;nid&#45;0b</title>
<polygon fill="none" stroke="#cccccc" points="744,-425 744,-743 1257,-743 1257,-425 744,-425"/>
</g>
<g id="clust11" class="cluster"><title>cluster&#45;nid&#45;0c</title>
<polygon fill="none" stroke="#cccccc" points="1486,-986 1486,-1112 1970,-1112 1970,-986 1486,-986"/>
</g>
<g id="clust12" class="cluster"><title>cluster&#45;nid&#45;0d</title>
<polygon fill="none" stroke="#cccccc" points="1486,-852 1486,-978 1970,-978 1970,-852 1486,-852"/>
</g>
<g id="clust14" class="cluster"><title>cluster&#45;nid&#45;0f</title>
<polygon fill="none" stroke="#cccccc" points="2171,-808 2171,-886 2652,-886 2652,-808 2171,-808"/>
</g>
<g id="clust18" class="cluster"><title>cluster&#45;nid&#45;12&#45;out</title>
<polygon fill="none" stroke="#cccccc" points="1126,-187 1126,-271 1286,-271 1286,-187 1126,-187"/>
</g>
<!-- nid&#45;02 -->
<g id="node1" class="node"><title>nid&#45;02</title>
<ellipse fill="none" stroke="blue" cx="835" cy="-1081" rx="36.5405" ry="26.7407"/>
<text text-anchor="middle" x="835" y="-1084.8" font-family="Times,serif" font-size="14.00">2</text>
<text text-anchor="middle" x="835" y="-1069.8" font-family="Times,serif" font-size="14.00">Stereo</text>
</g>
<!-- nid&#45;02&#45;ampout -->
<g id="node2" class="node"><title>nid&#45;02&#45;ampout</title>
<polygon fill="none" stroke="#0000ff" points="1233,-1081 1192.5,-1099 1192.5,-1063 1233,-1081"/>
</g>
<!-- nid&#45;02&#45;&gt;nid&#45;02&#45;ampout -->
<g id="edge1" class="edge"><title>nid&#45;02&#45;&gt;nid&#45;02&#45;ampout</title>
<path fill="none" stroke="#0000ff" d="M872.053,-1081C949.528,-1081 1129.52,-1081 1187.01,-1081"/>
<polygon fill="#0000ff" stroke="#0000ff" points="1187.18,-1082.75 1192.18,-1081 1187.18,-1079.25 1187.18,-1082.75"/>
</g>
<!-- nid&#45;0c&#45;ampin&#45;2 -->
<g id="node24" class="node"><title>nid&#45;0c&#45;ampin&#45;2</title>
<polygon fill="none" stroke="#0000ff" points="1660.39,-1081 1535.31,-1104 1535.31,-1058 1660.39,-1081"/>
<text text-anchor="middle" x="1577" y="-1077.3" font-family="Times,serif" font-size="14.00">0 (2)</text>
</g>
<!-- nid&#45;02&#45;ampout&#45;&gt;nid&#45;0c&#45;ampin&#45;2 -->
<g id="edge19" class="edge"><title>nid&#45;02&#45;ampout&#45;&gt;nid&#45;0c&#45;ampin&#45;2</title>
<path fill="none" stroke="#333333" d="M1233.24,-1081C1293.99,-1081 1445.16,-1081 1524.9,-1081"/>
<polygon fill="#333333" stroke="#333333" points="1525.19,-1084.5 1535.19,-1081 1525.19,-1077.5 1525.19,-1084.5"/>
</g>
<!-- nid&#45;03 -->
<g id="node3" class="node"><title>nid&#45;03</title>
<ellipse fill="none" stroke="blue" cx="835" cy="-947" rx="36.5405" ry="26.7407"/>
<text text-anchor="middle" x="835" y="-950.8" font-family="Times,serif" font-size="14.00">3</text>
<text text-anchor="middle" x="835" y="-935.8" font-family="Times,serif" font-size="14.00">Stereo</text>
</g>
<!-- nid&#45;03&#45;ampout -->
<g id="node4" class="node"><title>nid&#45;03&#45;ampout</title>
<polygon fill="none" stroke="#0000ff" points="1233,-947 1192.5,-965 1192.5,-929 1233,-947"/>
</g>
<!-- nid&#45;03&#45;&gt;nid&#45;03&#45;ampout -->
<g id="edge2" class="edge"><title>nid&#45;03&#45;&gt;nid&#45;03&#45;ampout</title>
<path fill="none" stroke="#0000ff" d="M872.053,-947C949.528,-947 1129.52,-947 1187.01,-947"/>
<polygon fill="#0000ff" stroke="#0000ff" points="1187.18,-948.75 1192.18,-947 1187.18,-945.25 1187.18,-948.75"/>
</g>
<!-- nid&#45;0d&#45;ampin&#45;3 -->
<g id="node27" class="node"><title>nid&#45;0d&#45;ampin&#45;3</title>
<polygon fill="none" stroke="#0000ff" points="1660.39,-947 1535.31,-970 1535.31,-924 1660.39,-947"/>
<text text-anchor="middle" x="1577" y="-943.3" font-family="Times,serif" font-size="14.00">0 (3)</text>
</g>
<!-- nid&#45;03&#45;ampout&#45;&gt;nid&#45;0d&#45;ampin&#45;3 -->
<g id="edge23" class="edge"><title>nid&#45;03&#45;ampout&#45;&gt;nid&#45;0d&#45;ampin&#45;3</title>
<path fill="none" stroke="#333333" d="M1233.24,-947C1293.99,-947 1445.16,-947 1524.9,-947"/>
<polygon fill="#333333" stroke="#333333" points="1525.19,-950.5 1535.19,-947 1525.19,-943.5 1525.19,-950.5"/>
</g>
<!-- nid&#45;06 -->
<g id="node5" class="node"><title>nid&#45;06</title>
<ellipse fill="none" stroke="blue" cx="83" cy="-1033" rx="67.3507" ry="26.7407"/>
<text text-anchor="middle" x="83" y="-1036.8" font-family="Times,serif" font-size="14.00">6</text>
<text text-anchor="middle" x="83" y="-1021.8" font-family="Times,serif" font-size="14.00">Stereo Digital</text>
</g>
<!-- nid&#45;1e&#45;in -->
<g id="node37" class="node"><title>nid&#45;1e&#45;in</title>
<polygon fill="none" stroke="green" points="533.5,-1067 368.5,-1067 368.5,-999 533.5,-999 533.5,-1067"/>
<text text-anchor="middle" x="451" y="-1051.8" font-family="Times,serif" font-size="14.00">30</text>
<text text-anchor="middle" x="451" y="-1036.8" font-family="Times,serif" font-size="14.00">[N/A] Speaker at Ext Rear</text>
<text text-anchor="middle" x="451" y="-1021.8" font-family="Times,serif" font-size="14.00">Stereo Digital</text>
<text text-anchor="middle" x="451" y="-1006.8" font-family="Times,serif" font-size="14.00">OUT Detect</text>
</g>
<!-- nid&#45;06&#45;&gt;nid&#45;1e&#45;in -->
<g id="edge33" class="edge"><title>nid&#45;06&#45;&gt;nid&#45;1e&#45;in</title>
<path fill="none" stroke="#333333" d="M150.28,-1033C208.354,-1033 293.345,-1033 358.003,-1033"/>
<polygon fill="#333333" stroke="#333333" points="358.199,-1036.5 368.199,-1033 358.199,-1029.5 358.199,-1036.5"/>
</g>
<!-- nid&#45;08 -->
<g id="node6" class="node"><title>nid&#45;08</title>
<ellipse fill="none" stroke="red" cx="2603" cy="-231" rx="36.5405" ry="26.7407"/>
<text text-anchor="middle" x="2603" y="-234.8" font-family="Times,serif" font-size="14.00">8</text>
<text text-anchor="middle" x="2603" y="-219.8" font-family="Times,serif" font-size="14.00">Stereo</text>
</g>
<!-- nid&#45;08&#45;ampin -->
<g id="node7" class="node"><title>nid&#45;08&#45;ampin</title>
<polygon fill="none" stroke="#3232f1" points="2289,-231 2248.5,-249 2248.5,-213 2289,-231"/>
</g>
<!-- nid&#45;08&#45;ampin&#45;&gt;nid&#45;08 -->
<g id="edge3" class="edge"><title>nid&#45;08&#45;ampin&#45;&gt;nid&#45;08</title>
<path fill="none" stroke="#3232f1" d="M2289.04,-231C2347.59,-231 2490.04,-231 2560.76,-231"/>
<polygon fill="#3232f1" stroke="#3232f1" points="2561.14,-232.75 2566.14,-231 2561.14,-229.25 2561.14,-232.75"/>
</g>
<!-- nid&#45;23 -->
<g id="node8" class="node"><title>nid&#45;23</title>
<polygon fill="none" stroke="black" points="1961.42,-231 1940.21,-262.054 1897.79,-262.054 1876.58,-231 1897.79,-199.946 1940.21,-199.946 1961.42,-231"/>
<text text-anchor="middle" x="1919" y="-234.8" font-family="Times,serif" font-size="14.00">35</text>
<text text-anchor="middle" x="1919" y="-219.8" font-family="Times,serif" font-size="14.00">Stereo</text>
</g>
<!-- nid&#45;23&#45;&gt;nid&#45;08&#45;ampin -->
<g id="edge4" class="edge"><title>nid&#45;23&#45;&gt;nid&#45;08&#45;ampin</title>
<path fill="none" stroke="#333333" d="M1961.47,-231C2034.02,-231 2181.64,-231 2238.22,-231"/>
<polygon fill="#333333" stroke="#333333" points="2238.28,-234.5 2248.28,-231 2238.28,-227.5 2238.28,-234.5"/>
</g>
<!-- nid&#45;09 -->
<g id="node9" class="node"><title>nid&#45;09</title>
<ellipse fill="none" stroke="red" cx="2603" cy="-653" rx="36.5405" ry="26.7407"/>
<text text-anchor="middle" x="2603" y="-656.8" font-family="Times,serif" font-size="14.00">9</text>
<text text-anchor="middle" x="2603" y="-641.8" font-family="Times,serif" font-size="14.00">Stereo</text>
</g>
<!-- nid&#45;09&#45;ampin -->
<g id="node10" class="node"><title>nid&#45;09&#45;ampin</title>
<polygon fill="none" stroke="#c8c8c8" points="2289,-653 2248.5,-671 2248.5,-635 2289,-653"/>
</g>
<!-- nid&#45;09&#45;ampin&#45;&gt;nid&#45;09 -->
<g id="edge5" class="edge"><title>nid&#45;09&#45;ampin&#45;&gt;nid&#45;09</title>
<path fill="none" stroke="#c8c8c8" d="M2289.04,-653C2347.59,-653 2490.04,-653 2560.76,-653"/>
<polygon fill="#c8c8c8" stroke="#c8c8c8" points="2561.14,-654.75 2566.14,-653 2561.14,-651.25 2561.14,-654.75"/>
</g>
<!-- nid&#45;22 -->
<g id="node11" class="node"><title>nid&#45;22</title>
<polygon fill="none" stroke="black" points="1961.42,-653 1940.21,-684.054 1897.79,-684.054 1876.58,-653 1897.79,-621.946 1940.21,-621.946 1961.42,-653"/>
<text text-anchor="middle" x="1919" y="-656.8" font-family="Times,serif" font-size="14.00">34</text>
<text text-anchor="middle" x="1919" y="-641.8" font-family="Times,serif" font-size="14.00">Stereo</text>
</g>
<!-- nid&#45;22&#45;&gt;nid&#45;09&#45;ampin -->
<g id="edge6" class="edge"><title>nid&#45;22&#45;&gt;nid&#45;09&#45;ampin</title>
<path fill="none" stroke="#333333" d="M1961.47,-653C2034.02,-653 2181.64,-653 2238.22,-653"/>
<polygon fill="#333333" stroke="#333333" points="2238.28,-656.5 2248.28,-653 2238.28,-649.5 2238.28,-656.5"/>
</g>
<!-- nid&#45;0b -->
<g id="node12" class="node"><title>nid&#45;0b</title>
<polygon fill="none" stroke="black" points="1248.42,-616 1227.21,-647.054 1184.79,-647.054 1163.58,-616 1184.79,-584.946 1227.21,-584.946 1248.42,-616"/>
<text text-anchor="middle" x="1206" y="-619.8" font-family="Times,serif" font-size="14.00">11</text>
<text text-anchor="middle" x="1206" y="-604.8" font-family="Times,serif" font-size="14.00">Stereo</text>
</g>
<!-- nid&#45;0c&#45;ampin&#45;11 -->
<g id="node25" class="node"><title>nid&#45;0c&#45;ampin&#45;11</title>
<polygon fill="none" stroke="#c8c8c8" points="1660.39,-1017 1535.31,-1040 1535.31,-994 1660.39,-1017"/>
<text text-anchor="middle" x="1577" y="-1013.3" font-family="Times,serif" font-size="14.00">1 (11)</text>
</g>
<!-- nid&#45;0b&#45;&gt;nid&#45;0c&#45;ampin&#45;11 -->
<g id="edge20" class="edge"><title>nid&#45;0b&#45;&gt;nid&#45;0c&#45;ampin&#45;11</title>
<path fill="none" stroke="#333333" d="M1222.88,-647.084C1259.85,-716.571 1358.32,-885.907 1486,-982 1497.64,-990.761 1511.75,-997.608 1525.31,-1002.83"/>
<polygon fill="#333333" stroke="#333333" points="1524.45,-1006.24 1535.04,-1006.35 1526.83,-999.657 1524.45,-1006.24"/>
</g>
<!-- nid&#45;0d&#45;ampin&#45;11 -->
<g id="node28" class="node"><title>nid&#45;0d&#45;ampin&#45;11</title>
<polygon fill="none" stroke="#c8c8c8" points="1660.39,-883 1535.31,-906 1535.31,-860 1660.39,-883"/>
<text text-anchor="middle" x="1577" y="-879.3" font-family="Times,serif" font-size="14.00">1 (11)</text>
</g>
<!-- nid&#45;0b&#45;&gt;nid&#45;0d&#45;ampin&#45;11 -->
<g id="edge24" class="edge"><title>nid&#45;0b&#45;&gt;nid&#45;0d&#45;ampin&#45;11</title>
<path fill="none" stroke="#333333" d="M1231.41,-641.102C1277.5,-687.328 1382.05,-786.776 1486,-848 1498.32,-855.257 1512.42,-861.564 1525.75,-866.748"/>
<polygon fill="#333333" stroke="#333333" points="1524.69,-870.088 1535.28,-870.322 1527.15,-863.534 1524.69,-870.088"/>
</g>
<!-- nid&#45;22&#45;ampin&#45;11 -->
<g id="node44" class="node"><title>nid&#45;22&#45;ampin&#45;11</title>
<polygon fill="none" stroke="#c8c8c8" points="1660.39,-685 1535.31,-708 1535.31,-662 1660.39,-685"/>
<text text-anchor="middle" x="1577" y="-681.3" font-family="Times,serif" font-size="14.00">5 (11)</text>
</g>
<!-- nid&#45;0b&#45;&gt;nid&#45;22&#45;ampin&#45;11 -->
<g id="edge47" class="edge"><title>nid&#45;0b&#45;&gt;nid&#45;22&#45;ampin&#45;11</title>
<path fill="none" stroke="#333333" d="M1243.73,-622.868C1309.98,-635.256 1449.58,-661.36 1525.02,-675.468"/>
<polygon fill="#333333" stroke="#333333" points="1524.76,-678.979 1535.23,-677.377 1526.04,-672.098 1524.76,-678.979"/>
</g>
<!-- nid&#45;23&#45;ampin&#45;11 -->
<g id="node50" class="node"><title>nid&#45;23&#45;ampin&#45;11</title>
<polygon fill="none" stroke="#c8c8c8" points="1660.39,-295 1535.31,-318 1535.31,-272 1660.39,-295"/>
<text text-anchor="middle" x="1577" y="-291.3" font-family="Times,serif" font-size="14.00">5 (11)</text>
</g>
<!-- nid&#45;0b&#45;&gt;nid&#45;23&#45;ampin&#45;11 -->
<g id="edge60" class="edge"><title>nid&#45;0b&#45;&gt;nid&#45;23&#45;ampin&#45;11</title>
<path fill="none" stroke="#333333" d="M1228.15,-586.25C1270.69,-528.458 1372.26,-400.272 1486,-327 1498,-319.267 1512.11,-313.116 1525.55,-308.358"/>
<polygon fill="#333333" stroke="#333333" points="1526.81,-311.628 1535.18,-305.136 1524.59,-304.989 1526.81,-311.628"/>
</g>
<!-- nid&#45;0b&#45;ampin&#45;24 -->
<g id="node13" class="node"><title>nid&#45;0b&#45;ampin&#45;24</title>
<polygon fill="none" stroke="#c8c8c8" points="918.386,-520 793.307,-543 793.307,-497 918.386,-520"/>
<text text-anchor="middle" x="835" y="-516.3" font-family="Times,serif" font-size="14.00">0 (24)</text>
</g>
<!-- nid&#45;0b&#45;ampin&#45;24&#45;&gt;nid&#45;0b -->
<g id="edge7" class="edge"><title>nid&#45;0b&#45;ampin&#45;24&#45;&gt;nid&#45;0b</title>
<path fill="none" stroke="#c8c8c8" d="M870.383,-528.945C938.787,-546.741 1091.62,-586.502 1164.64,-605.5"/>
<polygon fill="#c8c8c8" stroke="#c8c8c8" points="1164.48,-607.267 1169.76,-606.832 1165.36,-603.879 1164.48,-607.267"/>
</g>
<!-- nid&#45;0b&#45;ampin&#45;25 -->
<g id="node14" class="node"><title>nid&#45;0b&#45;ampin&#45;25</title>
<polygon fill="none" stroke="#c8c8c8" points="918.386,-712 793.307,-735 793.307,-689 918.386,-712"/>
<text text-anchor="middle" x="835" y="-708.3" font-family="Times,serif" font-size="14.00">1 (25)</text>
</g>
<!-- nid&#45;0b&#45;ampin&#45;25&#45;&gt;nid&#45;0b -->
<g id="edge8" class="edge"><title>nid&#45;0b&#45;ampin&#45;25&#45;&gt;nid&#45;0b</title>
<path fill="none" stroke="#c8c8c8" d="M870.383,-703.055C938.787,-685.259 1091.62,-645.498 1164.64,-626.5"/>
<polygon fill="#c8c8c8" stroke="#c8c8c8" points="1165.36,-628.121 1169.76,-625.168 1164.48,-624.733 1165.36,-628.121"/>
</g>
<!-- nid&#45;0b&#45;ampin&#45;26 -->
<g id="node15" class="node"><title>nid&#45;0b&#45;ampin&#45;26</title>
<polygon fill="none" stroke="#c8c8c8" points="918.386,-648 793.307,-671 793.307,-625 918.386,-648"/>
<text text-anchor="middle" x="835" y="-644.3" font-family="Times,serif" font-size="14.00">2 (26)</text>
</g>
<!-- nid&#45;0b&#45;ampin&#45;26&#45;&gt;nid&#45;0b -->
<g id="edge9" class="edge"><title>nid&#45;0b&#45;ampin&#45;26&#45;&gt;nid&#45;0b</title>
<path fill="none" stroke="#c8c8c8" d="M892.043,-643.14C965.631,-636.758 1093.34,-625.683 1160.61,-619.849"/>
<polygon fill="#c8c8c8" stroke="#c8c8c8" points="1160.92,-621.58 1165.75,-619.404 1160.61,-618.093 1160.92,-621.58"/>
</g>
<!-- nid&#45;0b&#45;ampin&#45;27 -->
<g id="node16" class="node"><title>nid&#45;0b&#45;ampin&#45;27</title>
<polygon fill="none" stroke="#c8c8c8" points="918.386,-584 793.307,-607 793.307,-561 918.386,-584"/>
<text text-anchor="middle" x="835" y="-580.3" font-family="Times,serif" font-size="14.00">3 (27)</text>
</g>
<!-- nid&#45;0b&#45;ampin&#45;27&#45;&gt;nid&#45;0b -->
<g id="edge10" class="edge"><title>nid&#45;0b&#45;ampin&#45;27&#45;&gt;nid&#45;0b</title>
<path fill="none" stroke="#c8c8c8" d="M892.043,-588.86C965.631,-595.242 1093.34,-606.317 1160.61,-612.151"/>
<polygon fill="#c8c8c8" stroke="#c8c8c8" points="1160.61,-613.907 1165.75,-612.596 1160.92,-610.42 1160.61,-613.907"/>
</g>
<!-- nid&#45;0b&#45;ampin&#45;29 -->
<g id="node17" class="node"><title>nid&#45;0b&#45;ampin&#45;29</title>
<polygon fill="none" stroke="#c8c8c8" points="918.386,-456 793.307,-479 793.307,-433 918.386,-456"/>
<text text-anchor="middle" x="835" y="-452.3" font-family="Times,serif" font-size="14.00">4 (29)</text>
</g>
<!-- nid&#45;0b&#45;ampin&#45;29&#45;&gt;nid&#45;0b -->
<g id="edge11" class="edge"><title>nid&#45;0b&#45;ampin&#45;29&#45;&gt;nid&#45;0b</title>
<path fill="none" stroke="#c8c8c8" d="M863.09,-466.201C879.131,-472.334 899.811,-480.4 918,-488 1008.89,-525.977 1114.33,-574.055 1168.59,-599.095"/>
<polygon fill="#c8c8c8" stroke="#c8c8c8" points="1168.09,-600.791 1173.36,-601.298 1169.56,-597.613 1168.09,-600.791"/>
</g>
<!-- nid&#45;18&#45;out -->
<g id="node18" class="node"><title>nid&#45;18&#45;out</title>
<polygon fill="none" stroke="green" points="533.5,-363 368.5,-363 368.5,-295 533.5,-295 533.5,-363"/>
<text text-anchor="middle" x="451" y="-347.8" font-family="Times,serif" font-size="14.00">24</text>
<text text-anchor="middle" x="451" y="-332.8" font-family="Times,serif" font-size="14.00">[N/A] Speaker at Ext Rear</text>
<text text-anchor="middle" x="451" y="-317.8" font-family="Times,serif" font-size="14.00">Stereo</text>
<text text-anchor="middle" x="451" y="-302.8" font-family="Times,serif" font-size="14.00">IN Detect</text>
</g>
<!-- nid&#45;18&#45;out&#45;&gt;nid&#45;0b&#45;ampin&#45;24 -->
<g id="edge12" class="edge"><title>nid&#45;18&#45;out&#45;&gt;nid&#45;0b&#45;ampin&#45;24</title>
<path fill="none" stroke="#333333" d="M521.02,-363.035C528.801,-367.012 536.59,-371.058 544,-375 634.132,-422.956 651.112,-445.63 744,-488 756.504,-493.704 770.344,-499.068 783.345,-503.715"/>
<polygon fill="#333333" stroke="#333333" points="782.493,-507.125 793.087,-507.123 784.804,-500.517 782.493,-507.125"/>
</g>
<!-- nid&#45;22&#45;ampin&#45;24 -->
<g id="node39" class="node"><title>nid&#45;22&#45;ampin&#45;24</title>
<polygon fill="none" stroke="#c8c8c8" points="1660.39,-557 1535.31,-580 1535.31,-534 1660.39,-557"/>
<text text-anchor="middle" x="1577" y="-553.3" font-family="Times,serif" font-size="14.00">0 (24)</text>
</g>
<!-- nid&#45;18&#45;out&#45;&gt;nid&#45;22&#45;ampin&#45;24 -->
<g id="edge42" class="edge"><title>nid&#45;18&#45;out&#45;&gt;nid&#45;22&#45;ampin&#45;24</title>
<path fill="none" stroke="#333333" d="M533.748,-322.001C686.305,-311.793 1022.74,-302.833 1286,-393 1386.76,-427.51 1390.69,-477.48 1486,-525 1498.42,-531.191 1512.33,-536.753 1525.44,-541.437"/>
<polygon fill="#333333" stroke="#333333" points="1524.67,-544.875 1535.27,-544.843 1526.96,-538.261 1524.67,-544.875"/>
</g>
<!-- nid&#45;23&#45;ampin&#45;24 -->
<g id="node45" class="node"><title>nid&#45;23&#45;ampin&#45;24</title>
<polygon fill="none" stroke="#c8c8c8" points="1660.39,-103 1535.31,-126 1535.31,-80 1660.39,-103"/>
<text text-anchor="middle" x="1577" y="-99.3" font-family="Times,serif" font-size="14.00">0 (24)</text>
</g>
<!-- nid&#45;18&#45;out&#45;&gt;nid&#45;23&#45;ampin&#45;24 -->
<g id="edge55" class="edge"><title>nid&#45;18&#45;out&#45;&gt;nid&#45;23&#45;ampin&#45;24</title>
<path fill="none" stroke="#333333" d="M533.622,-303.584C659.53,-265.316 909.273,-193.119 1126,-153 1269.39,-126.457 1441.27,-112.127 1525.05,-106.248"/>
<polygon fill="#333333" stroke="#333333" points="1525.33,-109.737 1535.07,-105.556 1524.85,-102.753 1525.33,-109.737"/>
</g>
<!-- nid&#45;19&#45;out -->
<g id="node19" class="node"><title>nid&#45;19&#45;out</title>
<polygon fill="none" stroke="green" points="521,-881 381,-881 381,-813 521,-813 521,-881"/>
<text text-anchor="middle" x="451" y="-865.8" font-family="Times,serif" font-size="14.00">25</text>
<text text-anchor="middle" x="451" y="-850.8" font-family="Times,serif" font-size="14.00">[Jack] Mic at Ext Left</text>
<text text-anchor="middle" x="451" y="-835.8" font-family="Times,serif" font-size="14.00">Stereo</text>
<text text-anchor="middle" x="451" y="-820.8" font-family="Times,serif" font-size="14.00">IN Detect</text>
</g>
<!-- nid&#45;19&#45;out&#45;&gt;nid&#45;0b&#45;ampin&#45;25 -->
<g id="edge13" class="edge"><title>nid&#45;19&#45;out&#45;&gt;nid&#45;0b&#45;ampin&#45;25</title>
<path fill="none" stroke="#333333" d="M521.177,-822.553C596.897,-795.793 716.458,-753.54 783.721,-729.769"/>
<polygon fill="#333333" stroke="#333333" points="784.992,-733.032 793.254,-726.4 782.66,-726.432 784.992,-733.032"/>
</g>
<!-- nid&#45;22&#45;ampin&#45;25 -->
<g id="node40" class="node"><title>nid&#45;22&#45;ampin&#45;25</title>
<polygon fill="none" stroke="#c8c8c8" points="1660.39,-813 1535.31,-836 1535.31,-790 1660.39,-813"/>
<text text-anchor="middle" x="1577" y="-809.3" font-family="Times,serif" font-size="14.00">1 (25)</text>
</g>
<!-- nid&#45;19&#45;out&#45;&gt;nid&#45;22&#45;ampin&#45;25 -->
<g id="edge43" class="edge"><title>nid&#45;19&#45;out&#45;&gt;nid&#45;22&#45;ampin&#45;25</title>
<path fill="none" stroke="#333333" d="M521.032,-851.023C663.974,-858.575 1002.69,-872.447 1286,-853 1370.19,-847.221 1467.15,-832.113 1524.92,-822.208"/>
<polygon fill="#333333" stroke="#333333" points="1525.63,-825.637 1534.88,-820.483 1524.43,-818.739 1525.63,-825.637"/>
</g>
<!-- nid&#45;23&#45;ampin&#45;25 -->
<g id="node46" class="node"><title>nid&#45;23&#45;ampin&#45;25</title>
<polygon fill="none" stroke="#c8c8c8" points="1660.39,-423 1535.31,-446 1535.31,-400 1660.39,-423"/>
<text text-anchor="middle" x="1577" y="-419.3" font-family="Times,serif" font-size="14.00">1 (25)</text>
</g>
<!-- nid&#45;19&#45;out&#45;&gt;nid&#45;23&#45;ampin&#45;25 -->
<g id="edge56" class="edge"><title>nid&#45;19&#45;out&#45;&gt;nid&#45;23&#45;ampin&#45;25</title>
<path fill="none" stroke="#333333" d="M521.018,-848.452C697.121,-850.968 1158.24,-849.746 1286,-772 1427.35,-685.986 1358.1,-562.973 1486,-458 1497.48,-448.58 1511.78,-441.489 1525.59,-436.243"/>
<polygon fill="#333333" stroke="#333333" points="1526.77,-439.538 1535.03,-432.9 1524.43,-432.94 1526.77,-439.538"/>
</g>
<!-- nid&#45;1a&#45;out -->
<g id="node20" class="node"><title>nid&#45;1a&#45;out</title>
<polygon fill="none" stroke="green" points="533.5,-789 368.5,-789 368.5,-721 533.5,-721 533.5,-789"/>
<text text-anchor="middle" x="451" y="-773.8" font-family="Times,serif" font-size="14.00">26</text>
<text text-anchor="middle" x="451" y="-758.8" font-family="Times,serif" font-size="14.00">[N/A] Speaker at Ext Rear</text>
<text text-anchor="middle" x="451" y="-743.8" font-family="Times,serif" font-size="14.00">Stereo</text>
<text text-anchor="middle" x="451" y="-728.8" font-family="Times,serif" font-size="14.00">IN Detect</text>
</g>
<!-- nid&#45;1a&#45;out&#45;&gt;nid&#45;0b&#45;ampin&#45;26 -->
<g id="edge14" class="edge"><title>nid&#45;1a&#45;out&#45;&gt;nid&#45;0b&#45;ampin&#45;26</title>
<path fill="none" stroke="#333333" d="M533.949,-732.046C609.695,-710.829 719.853,-679.973 783.483,-662.15"/>
<polygon fill="#333333" stroke="#333333" points="784.598,-665.473 793.283,-659.405 782.71,-658.732 784.598,-665.473"/>
</g>
<!-- nid&#45;22&#45;ampin&#45;26 -->
<g id="node41" class="node"><title>nid&#45;22&#45;ampin&#45;26</title>
<polygon fill="none" stroke="#c8c8c8" points="1660.39,-749 1535.31,-772 1535.31,-726 1660.39,-749"/>
<text text-anchor="middle" x="1577" y="-745.3" font-family="Times,serif" font-size="14.00">2 (26)</text>
</g>
<!-- nid&#45;1a&#45;out&#45;&gt;nid&#45;22&#45;ampin&#45;26 -->
<g id="edge44" class="edge"><title>nid&#45;1a&#45;out&#45;&gt;nid&#45;22&#45;ampin&#45;26</title>
<path fill="none" stroke="#333333" d="M533.719,-762.81C592.216,-767.996 672.877,-774.324 744,-777 984.719,-786.055 1045.39,-788.589 1286,-777 1370.12,-772.948 1467.49,-762.322 1525.3,-755.388"/>
<polygon fill="#333333" stroke="#333333" points="1525.76,-758.857 1535.27,-754.181 1524.92,-751.908 1525.76,-758.857"/>
</g>
<!-- nid&#45;23&#45;ampin&#45;26 -->
<g id="node47" class="node"><title>nid&#45;23&#45;ampin&#45;26</title>
<polygon fill="none" stroke="#c8c8c8" points="1660.39,-359 1535.31,-382 1535.31,-336 1660.39,-359"/>
<text text-anchor="middle" x="1577" y="-355.3" font-family="Times,serif" font-size="14.00">2 (26)</text>
</g>
<!-- nid&#45;1a&#45;out&#45;&gt;nid&#45;23&#45;ampin&#45;26 -->
<g id="edge57" class="edge"><title>nid&#45;1a&#45;out&#45;&gt;nid&#45;23&#45;ampin&#45;26</title>
<path fill="none" stroke="#333333" d="M533.749,-758.814C731.185,-767.378 1222.48,-784.581 1286,-747 1442.19,-654.588 1347.23,-507.952 1486,-391 1497.22,-381.541 1511.45,-374.797 1525.25,-370.022"/>
<polygon fill="#333333" stroke="#333333" points="1526.7,-373.234 1535.18,-366.882 1524.59,-366.56 1526.7,-373.234"/>
</g>
<!-- nid&#45;1b&#45;out -->
<g id="node21" class="node"><title>nid&#45;1b&#45;out</title>
<polygon fill="none" stroke="green" points="533.5,-455 368.5,-455 368.5,-387 533.5,-387 533.5,-455"/>
<text text-anchor="middle" x="451" y="-439.8" font-family="Times,serif" font-size="14.00">27</text>
<text text-anchor="middle" x="451" y="-424.8" font-family="Times,serif" font-size="14.00">[N/A] Speaker at Ext Rear</text>
<text text-anchor="middle" x="451" y="-409.8" font-family="Times,serif" font-size="14.00">Stereo</text>
<text text-anchor="middle" x="451" y="-394.8" font-family="Times,serif" font-size="14.00">IN OUT HP EAPD Detect</text>
</g>
<!-- nid&#45;1b&#45;out&#45;&gt;nid&#45;0b&#45;ampin&#45;27 -->
<g id="edge15" class="edge"><title>nid&#45;1b&#45;out&#45;&gt;nid&#45;0b&#45;ampin&#45;27</title>
<path fill="none" stroke="#333333" d="M523.61,-455.059C582.304,-482.505 667.814,-521.423 744,-552 756.632,-557.07 770.415,-562.178 783.313,-566.779"/>
<polygon fill="#333333" stroke="#333333" points="782.376,-570.16 792.97,-570.189 784.707,-563.559 782.376,-570.16"/>
</g>
<!-- nid&#45;22&#45;ampin&#45;27 -->
<g id="node42" class="node"><title>nid&#45;22&#45;ampin&#45;27</title>
<polygon fill="none" stroke="#c8c8c8" points="1660.39,-621 1535.31,-644 1535.31,-598 1660.39,-621"/>
<text text-anchor="middle" x="1577" y="-617.3" font-family="Times,serif" font-size="14.00">3 (27)</text>
</g>
<!-- nid&#45;1b&#45;out&#45;&gt;nid&#45;22&#45;ampin&#45;27 -->
<g id="edge45" class="edge"><title>nid&#45;1b&#45;out&#45;&gt;nid&#45;22&#45;ampin&#45;27</title>
<path fill="none" stroke="#333333" d="M533.71,-413.968C715.823,-399.423 1149.7,-371.349 1286,-421 1395.08,-460.733 1385.26,-531.304 1486,-589 1498.27,-596.03 1512.36,-601.928 1525.69,-606.668"/>
<polygon fill="#333333" stroke="#333333" points="1524.63,-610.004 1535.22,-609.914 1526.89,-603.377 1524.63,-610.004"/>
</g>
<!-- nid&#45;23&#45;ampin&#45;27 -->
<g id="node48" class="node"><title>nid&#45;23&#45;ampin&#45;27</title>
<polygon fill="none" stroke="#c8c8c8" points="1660.39,-167 1535.31,-190 1535.31,-144 1660.39,-167"/>
<text text-anchor="middle" x="1577" y="-163.3" font-family="Times,serif" font-size="14.00">3 (27)</text>
</g>
<!-- nid&#45;1b&#45;out&#45;&gt;nid&#45;23&#45;ampin&#45;27 -->
<g id="edge58" class="edge"><title>nid&#45;1b&#45;out&#45;&gt;nid&#45;23&#45;ampin&#45;27</title>
<path fill="none" stroke="#333333" d="M524.756,-386.998C646.185,-332.167 899.229,-226.024 1126,-183 1268.67,-155.933 1441.22,-159.722 1525.17,-163.839"/>
<polygon fill="#333333" stroke="#333333" points="1525.04,-167.337 1535.21,-164.354 1525.4,-160.346 1525.04,-167.337"/>
</g>
<!-- nid&#45;1d&#45;out -->
<g id="node22" class="node"><title>nid&#45;1d&#45;out</title>
<polygon fill="none" stroke="green" points="536,-271 366,-271 366,-203 536,-203 536,-271"/>
<text text-anchor="middle" x="451" y="-255.8" font-family="Times,serif" font-size="14.00">29</text>
<text text-anchor="middle" x="451" y="-240.8" font-family="Times,serif" font-size="14.00">[N/A] Reserved at Ext N/A</text>
<text text-anchor="middle" x="451" y="-225.8" font-family="Times,serif" font-size="14.00">Mono</text>
<text text-anchor="middle" x="451" y="-210.8" font-family="Times,serif" font-size="14.00">IN</text>
</g>
<!-- nid&#45;1d&#45;out&#45;&gt;nid&#45;0b&#45;ampin&#45;29 -->
<g id="edge16" class="edge"><title>nid&#45;1d&#45;out&#45;&gt;nid&#45;0b&#45;ampin&#45;29</title>
<path fill="none" stroke="#333333" d="M521.609,-271.117C529.207,-275.045 536.794,-279.056 544,-283 632.844,-331.624 733.845,-393.406 790.135,-428.444"/>
<polygon fill="#333333" stroke="#333333" points="788.439,-431.511 798.776,-433.832 792.142,-425.571 788.439,-431.511"/>
</g>
<!-- nid&#45;22&#45;ampin&#45;29 -->
<g id="node43" class="node"><title>nid&#45;22&#45;ampin&#45;29</title>
<polygon fill="none" stroke="#c8c8c8" points="1660.39,-493 1535.31,-516 1535.31,-470 1660.39,-493"/>
<text text-anchor="middle" x="1577" y="-489.3" font-family="Times,serif" font-size="14.00">4 (29)</text>
</g>
<!-- nid&#45;1d&#45;out&#45;&gt;nid&#45;22&#45;ampin&#45;29 -->
<g id="edge46" class="edge"><title>nid&#45;1d&#45;out&#45;&gt;nid&#45;22&#45;ampin&#45;29</title>
<path fill="none" stroke="#333333" d="M536.239,-238.024C689.342,-242.095 1021.83,-261.165 1286,-348 1382.37,-379.678 1394.08,-415.078 1486,-458 1498.71,-463.936 1512.73,-469.732 1525.84,-474.844"/>
<polygon fill="#333333" stroke="#333333" points="1524.61,-478.119 1535.2,-478.438 1527.12,-471.585 1524.61,-478.119"/>
</g>
<!-- nid&#45;23&#45;ampin&#45;29 -->
<g id="node49" class="node"><title>nid&#45;23&#45;ampin&#45;29</title>
<polygon fill="none" stroke="#c8c8c8" points="1660.39,-39 1535.31,-62 1535.31,-16 1660.39,-39"/>
<text text-anchor="middle" x="1577" y="-35.3" font-family="Times,serif" font-size="14.00">4 (29)</text>
</g>
<!-- nid&#45;1d&#45;out&#45;&gt;nid&#45;23&#45;ampin&#45;29 -->
<g id="edge59" class="edge"><title>nid&#45;1d&#45;out&#45;&gt;nid&#45;23&#45;ampin&#45;29</title>
<path fill="none" stroke="#333333" d="M509.521,-202.861C566.806,-170.714 658.325,-124.271 744,-102 1031.68,-27.2191 1392.71,-31.8424 1524.69,-36.623"/>
<polygon fill="#333333" stroke="#333333" points="1524.77,-40.1287 1534.9,-37.0101 1525.04,-33.1337 1524.77,-40.1287"/>
</g>
<!-- nid&#45;0c -->
<g id="node23" class="node"><title>nid&#45;0c</title>
<polygon fill="none" stroke="black" points="1961.42,-1028 1940.21,-1059.05 1897.79,-1059.05 1876.58,-1028 1897.79,-996.946 1940.21,-996.946 1961.42,-1028"/>
<text text-anchor="middle" x="1919" y="-1031.8" font-family="Times,serif" font-size="14.00">12</text>
<text text-anchor="middle" x="1919" y="-1016.8" font-family="Times,serif" font-size="14.00">Stereo</text>
</g>
<!-- nid&#45;14&#45;in -->
<g id="node32" class="node"><title>nid&#45;14&#45;in</title>
<polygon fill="none" stroke="green" points="2345.5,-1154 2178.5,-1154 2178.5,-1086 2345.5,-1086 2345.5,-1154"/>
<text text-anchor="middle" x="2262" y="-1138.8" font-family="Times,serif" font-size="14.00">20</text>
<text text-anchor="middle" x="2262" y="-1123.8" font-family="Times,serif" font-size="14.00">[Fixed] Speaker at Int N/A</text>
<text text-anchor="middle" x="2262" y="-1108.8" font-family="Times,serif" font-size="14.00">Stereo</text>
<text text-anchor="middle" x="2262" y="-1093.8" font-family="Times,serif" font-size="14.00">OUT EAPD Detect</text>
</g>
<!-- nid&#45;0c&#45;&gt;nid&#45;14&#45;in -->
<g id="edge27" class="edge"><title>nid&#45;0c&#45;&gt;nid&#45;14&#45;in</title>
<path fill="none" stroke="#333333" d="M1955.21,-1037.5C2005.1,-1050.96 2098.14,-1076.06 2168.54,-1095.05"/>
<polygon fill="#333333" stroke="#333333" points="2167.75,-1098.47 2178.31,-1097.69 2169.57,-1091.71 2167.75,-1098.47"/>
</g>
<!-- nid&#45;1b&#45;in -->
<g id="node34" class="node"><title>nid&#45;1b&#45;in</title>
<polygon fill="none" stroke="green" points="2344.5,-1062 2179.5,-1062 2179.5,-994 2344.5,-994 2344.5,-1062"/>
<text text-anchor="middle" x="2262" y="-1046.8" font-family="Times,serif" font-size="14.00">27</text>
<text text-anchor="middle" x="2262" y="-1031.8" font-family="Times,serif" font-size="14.00">[N/A] Speaker at Ext Rear</text>
<text text-anchor="middle" x="2262" y="-1016.8" font-family="Times,serif" font-size="14.00">Stereo</text>
<text text-anchor="middle" x="2262" y="-1001.8" font-family="Times,serif" font-size="14.00">IN OUT HP EAPD Detect</text>
</g>
<!-- nid&#45;0c&#45;&gt;nid&#45;1b&#45;in -->
<g id="edge31" class="edge"><title>nid&#45;0c&#45;&gt;nid&#45;1b&#45;in</title>
<path fill="none" stroke="#333333" d="M1961.47,-1028C2012.71,-1028 2101.39,-1028 2169,-1028"/>
<polygon fill="#333333" stroke="#333333" points="2169.24,-1031.5 2179.24,-1028 2169.24,-1024.5 2169.24,-1031.5"/>
</g>
<!-- nid&#45;21&#45;in -->
<g id="node38" class="node"><title>nid&#45;21&#45;in</title>
<polygon fill="none" stroke="green" points="2342,-970 2182,-970 2182,-902 2342,-902 2342,-970"/>
<text text-anchor="middle" x="2262" y="-954.8" font-family="Times,serif" font-size="14.00">33</text>
<text text-anchor="middle" x="2262" y="-939.8" font-family="Times,serif" font-size="14.00">[Jack] HP Out at Ext Left</text>
<text text-anchor="middle" x="2262" y="-924.8" font-family="Times,serif" font-size="14.00">Stereo</text>
<text text-anchor="middle" x="2262" y="-909.8" font-family="Times,serif" font-size="14.00">OUT HP EAPD Detect</text>
</g>
<!-- nid&#45;0c&#45;&gt;nid&#45;21&#45;in -->
<g id="edge34" class="edge"><title>nid&#45;0c&#45;&gt;nid&#45;21&#45;in</title>
<path fill="none" stroke="gray" stroke-dasharray="5,2" d="M1955.21,-1018.5C2005.92,-1004.82 2101.18,-979.119 2171.96,-960.023"/>
<polygon fill="gray" stroke="gray" points="2173.03,-963.358 2181.78,-957.374 2171.21,-956.6 2173.03,-963.358"/>
</g>
<!-- nid&#45;0c&#45;ampin&#45;2&#45;&gt;nid&#45;0c -->
<g id="edge17" class="edge"><title>nid&#45;0c&#45;ampin&#45;2&#45;&gt;nid&#45;0c</title>
<path fill="none" stroke="#0000ff" d="M1622.8,-1074.02C1688.57,-1063.76 1810.45,-1044.77 1875.11,-1034.69"/>
<polygon fill="#0000ff" stroke="#0000ff" points="1875.76,-1036.36 1880.43,-1033.86 1875.22,-1032.9 1875.76,-1036.36"/>
</g>
<!-- nid&#45;0c&#45;ampin&#45;11&#45;&gt;nid&#45;0c -->
<g id="edge18" class="edge"><title>nid&#45;0c&#45;ampin&#45;11&#45;&gt;nid&#45;0c</title>
<path fill="none" stroke="#c8c8c8" d="M1648.45,-1019.28C1715.66,-1021.45 1814.94,-1024.67 1872.38,-1026.52"/>
<polygon fill="#c8c8c8" stroke="#c8c8c8" points="1872.41,-1028.28 1877.46,-1026.69 1872.52,-1024.78 1872.41,-1028.28"/>
</g>
<!-- nid&#45;0d -->
<g id="node26" class="node"><title>nid&#45;0d</title>
<polygon fill="none" stroke="black" points="1961.42,-936 1940.21,-967.054 1897.79,-967.054 1876.58,-936 1897.79,-904.946 1940.21,-904.946 1961.42,-936"/>
<text text-anchor="middle" x="1919" y="-939.8" font-family="Times,serif" font-size="14.00">13</text>
<text text-anchor="middle" x="1919" y="-924.8" font-family="Times,serif" font-size="14.00">Stereo</text>
</g>
<!-- nid&#45;0f&#45;ampin&#45;13 -->
<g id="node30" class="node"><title>nid&#45;0f&#45;ampin&#45;13</title>
<polygon fill="none" stroke="#0000ff" points="2345.39,-847 2220.31,-870 2220.31,-824 2345.39,-847"/>
<text text-anchor="middle" x="2262" y="-843.3" font-family="Times,serif" font-size="14.00">0 (13)</text>
</g>
<!-- nid&#45;0d&#45;&gt;nid&#45;0f&#45;ampin&#45;13 -->
<g id="edge26" class="edge"><title>nid&#45;0d&#45;&gt;nid&#45;0f&#45;ampin&#45;13</title>
<path fill="none" stroke="#333333" d="M1955.21,-926.811C2015.87,-910.979 2140.29,-878.505 2210.28,-860.237"/>
<polygon fill="#333333" stroke="#333333" points="2211.41,-863.56 2220.2,-857.648 2209.64,-856.787 2211.41,-863.56"/>
</g>
<!-- nid&#45;0d&#45;&gt;nid&#45;1b&#45;in -->
<g id="edge32" class="edge"><title>nid&#45;0d&#45;&gt;nid&#45;1b&#45;in</title>
<path fill="none" stroke="gray" stroke-dasharray="5,2" d="M1955.21,-945.499C2005.35,-959.026 2099.05,-984.306 2169.57,-1003.33"/>
<polygon fill="gray" stroke="gray" points="2168.79,-1006.75 2179.36,-1005.97 2170.61,-999.989 2168.79,-1006.75"/>
</g>
<!-- nid&#45;0d&#45;&gt;nid&#45;21&#45;in -->
<g id="edge35" class="edge"><title>nid&#45;0d&#45;&gt;nid&#45;21&#45;in</title>
<path fill="none" stroke="#333333" d="M1961.47,-936C2013.39,-936 2103.74,-936 2171.66,-936"/>
<polygon fill="#333333" stroke="#333333" points="2171.94,-939.5 2181.94,-936 2171.94,-932.5 2171.94,-939.5"/>
</g>
<!-- nid&#45;0d&#45;ampin&#45;3&#45;&gt;nid&#45;0d -->
<g id="edge21" class="edge"><title>nid&#45;0d&#45;ampin&#45;3&#45;&gt;nid&#45;0d</title>
<path fill="none" stroke="#0000ff" d="M1648.45,-944.721C1715.66,-942.546 1814.94,-939.334 1872.38,-937.476"/>
<polygon fill="#0000ff" stroke="#0000ff" points="1872.52,-939.222 1877.46,-937.312 1872.41,-935.724 1872.52,-939.222"/>
</g>
<!-- nid&#45;0d&#45;ampin&#45;11&#45;&gt;nid&#45;0d -->
<g id="edge22" class="edge"><title>nid&#45;0d&#45;ampin&#45;11&#45;&gt;nid&#45;0d</title>
<path fill="none" stroke="#c8c8c8" d="M1622.8,-889.983C1688.57,-900.236 1810.45,-919.234 1875.11,-929.315"/>
<polygon fill="#c8c8c8" stroke="#c8c8c8" points="1875.22,-931.102 1880.43,-930.143 1875.76,-927.644 1875.22,-931.102"/>
</g>
<!-- nid&#45;0f -->
<g id="node29" class="node"><title>nid&#45;0f</title>
<polygon fill="none" stroke="black" points="2643.65,-847 2623.33,-878.054 2582.67,-878.054 2562.35,-847 2582.67,-815.946 2623.33,-815.946 2643.65,-847"/>
<text text-anchor="middle" x="2603" y="-850.8" font-family="Times,serif" font-size="14.00">15</text>
<text text-anchor="middle" x="2603" y="-835.8" font-family="Times,serif" font-size="14.00">Mono</text>
</g>
<!-- nid&#45;17&#45;in -->
<g id="node33" class="node"><title>nid&#45;17&#45;in</title>
<polygon fill="none" stroke="green" points="3028,-881 2860,-881 2860,-813 3028,-813 3028,-881"/>
<text text-anchor="middle" x="2944" y="-865.8" font-family="Times,serif" font-size="14.00">23</text>
<text text-anchor="middle" x="2944" y="-850.8" font-family="Times,serif" font-size="14.00">[N/A] Line Out at Ext N/A</text>
<text text-anchor="middle" x="2944" y="-835.8" font-family="Times,serif" font-size="14.00">Mono</text>
<text text-anchor="middle" x="2944" y="-820.8" font-family="Times,serif" font-size="14.00">OUT</text>
</g>
<!-- nid&#45;0f&#45;&gt;nid&#45;17&#45;in -->
<g id="edge28" class="edge"><title>nid&#45;0f&#45;&gt;nid&#45;17&#45;in</title>
<path fill="none" stroke="#333333" d="M2643.88,-847C2694.16,-847 2782.17,-847 2849.76,-847"/>
<polygon fill="#333333" stroke="#333333" points="2850,-850.5 2859.99,-847 2849.99,-843.5 2850,-850.5"/>
</g>
<!-- nid&#45;0f&#45;ampin&#45;13&#45;&gt;nid&#45;0f -->
<g id="edge25" class="edge"><title>nid&#45;0f&#45;ampin&#45;13&#45;&gt;nid&#45;0f</title>
<path fill="none" stroke="#0000ff" d="M2345.5,-847C2412.14,-847 2503.4,-847 2557.18,-847"/>
<polygon fill="#0000ff" stroke="#0000ff" points="2557.27,-848.75 2562.27,-847 2557.27,-845.25 2557.27,-848.75"/>
</g>
<!-- nid&#45;12&#45;out -->
<g id="node31" class="node"><title>nid&#45;12&#45;out</title>
<polygon fill="none" stroke="green" points="1278,-263 1134,-263 1134,-195 1278,-195 1278,-263"/>
<text text-anchor="middle" x="1206" y="-247.8" font-family="Times,serif" font-size="14.00">18</text>
<text text-anchor="middle" x="1206" y="-232.8" font-family="Times,serif" font-size="14.00">[Fixed] Mic at Int N/A</text>
<text text-anchor="middle" x="1206" y="-217.8" font-family="Times,serif" font-size="14.00">Stereo</text>
<text text-anchor="middle" x="1206" y="-202.8" font-family="Times,serif" font-size="14.00">IN</text>
</g>
<!-- nid&#45;23&#45;ampin&#45;18 -->
<g id="node51" class="node"><title>nid&#45;23&#45;ampin&#45;18</title>
<polygon fill="none" stroke="#0000ff" points="1660.39,-231 1535.31,-254 1535.31,-208 1660.39,-231"/>
<text text-anchor="middle" x="1577" y="-227.3" font-family="Times,serif" font-size="14.00">6 (18)</text>
</g>
<!-- nid&#45;12&#45;out&#45;&gt;nid&#45;23&#45;ampin&#45;18 -->
<g id="edge61" class="edge"><title>nid&#45;12&#45;out&#45;&gt;nid&#45;23&#45;ampin&#45;18</title>
<path fill="none" stroke="#333333" d="M1278.15,-229.386C1350.46,-229.778 1460.7,-230.375 1524.82,-230.723"/>
<polygon fill="#333333" stroke="#333333" points="1525.07,-234.224 1535.09,-230.778 1525.11,-227.224 1525.07,-234.224"/>
</g>
<!-- nid&#45;1b&#45;ampout -->
<g id="node35" class="node"><title>nid&#45;1b&#45;ampout</title>
<polygon fill="none" stroke="#c8c8c8" points="2630,-1028 2589.5,-1046 2589.5,-1010 2630,-1028"/>
</g>
<!-- nid&#45;1b&#45;in&#45;&gt;nid&#45;1b&#45;ampout -->
<g id="edge29" class="edge"><title>nid&#45;1b&#45;in&#45;&gt;nid&#45;1b&#45;ampout</title>
<path fill="none" stroke="#c8c8c8" d="M2344.63,-1028C2424.48,-1028 2540.29,-1028 2584.21,-1028"/>
<polygon fill="#c8c8c8" stroke="#c8c8c8" points="2584.44,-1029.75 2589.44,-1028 2584.44,-1026.25 2584.44,-1029.75"/>
</g>
<!-- nid&#45;1b&#45;ampin -->
<g id="node36" class="node"><title>nid&#45;1b&#45;ampin</title>
<polygon fill="none" stroke="#0000ff" points="110,-421 69.5,-439 69.5,-403 110,-421"/>
</g>
<!-- nid&#45;1b&#45;ampin&#45;&gt;nid&#45;1b&#45;out -->
<g id="edge30" class="edge"><title>nid&#45;1b&#45;ampin&#45;&gt;nid&#45;1b&#45;out</title>
<path fill="none" stroke="#0000ff" d="M110.028,-421C161.965,-421 280.544,-421 362.941,-421"/>
<polygon fill="#0000ff" stroke="#0000ff" points="363.315,-422.75 368.315,-421 363.315,-419.25 363.315,-422.75"/>
</g>
<!-- nid&#45;22&#45;ampin&#45;24&#45;&gt;nid&#45;22 -->
<g id="edge36" class="edge"><title>nid&#45;22&#45;ampin&#45;24&#45;&gt;nid&#45;22</title>
<path fill="none" stroke="#c8c8c8" d="M1610.6,-566.205C1673.21,-583.883 1810.08,-622.529 1878.06,-641.722"/>
<polygon fill="#c8c8c8" stroke="#c8c8c8" points="1877.94,-643.507 1883.23,-643.181 1878.89,-640.138 1877.94,-643.507"/>
</g>
<!-- nid&#45;22&#45;ampin&#45;25&#45;&gt;nid&#45;22 -->
<g id="edge37" class="edge"><title>nid&#45;22&#45;ampin&#45;25&#45;&gt;nid&#45;22</title>
<path fill="none" stroke="#c8c8c8" d="M1605.96,-802.791C1621.93,-796.785 1642.25,-788.848 1660,-781 1741.07,-745.154 1833.59,-697.571 1882.82,-671.697"/>
<polygon fill="#c8c8c8" stroke="#c8c8c8" points="1883.83,-673.14 1887.44,-669.262 1882.2,-670.042 1883.83,-673.14"/>
</g>
<!-- nid&#45;22&#45;ampin&#45;26&#45;&gt;nid&#45;22 -->
<g id="edge38" class="edge"><title>nid&#45;22&#45;ampin&#45;26&#45;&gt;nid&#45;22</title>
<path fill="none" stroke="#c8c8c8" d="M1610.6,-739.795C1673.21,-722.117 1810.08,-683.471 1878.06,-664.278"/>
<polygon fill="#c8c8c8" stroke="#c8c8c8" points="1878.89,-665.862 1883.23,-662.819 1877.94,-662.493 1878.89,-665.862"/>
</g>
<!-- nid&#45;22&#45;ampin&#45;27&#45;&gt;nid&#45;22 -->
<g id="edge39" class="edge"><title>nid&#45;22&#45;ampin&#45;27&#45;&gt;nid&#45;22</title>
<path fill="none" stroke="#c8c8c8" d="M1632.63,-626.141C1699.63,-632.448 1811.92,-643.016 1873.78,-648.838"/>
<polygon fill="#c8c8c8" stroke="#c8c8c8" points="1873.73,-650.591 1878.88,-649.318 1874.06,-647.107 1873.73,-650.591"/>
</g>
<!-- nid&#45;22&#45;ampin&#45;29&#45;&gt;nid&#45;22 -->
<g id="edge40" class="edge"><title>nid&#45;22&#45;ampin&#45;29&#45;&gt;nid&#45;22</title>
<path fill="none" stroke="#c8c8c8" d="M1605.96,-503.209C1621.93,-509.215 1642.25,-517.152 1660,-525 1741.07,-560.846 1833.59,-608.429 1882.82,-634.303"/>
<polygon fill="#c8c8c8" stroke="#c8c8c8" points="1882.2,-635.958 1887.44,-636.738 1883.83,-632.86 1882.2,-635.958"/>
</g>
<!-- nid&#45;22&#45;ampin&#45;11&#45;&gt;nid&#45;22 -->
<g id="edge41" class="edge"><title>nid&#45;22&#45;ampin&#45;11&#45;&gt;nid&#45;22</title>
<path fill="none" stroke="#c8c8c8" d="M1632.63,-679.859C1699.63,-673.552 1811.92,-662.984 1873.78,-657.162"/>
<polygon fill="#c8c8c8" stroke="#c8c8c8" points="1874.06,-658.893 1878.88,-656.682 1873.73,-655.409 1874.06,-658.893"/>
</g>
<!-- nid&#45;23&#45;ampin&#45;24&#45;&gt;nid&#45;23 -->
<g id="edge48" class="edge"><title>nid&#45;23&#45;ampin&#45;24&#45;&gt;nid&#45;23</title>
<path fill="none" stroke="#c8c8c8" d="M1605.25,-113.258C1665.65,-135.997 1810.9,-190.679 1880.1,-216.732"/>
<polygon fill="#c8c8c8" stroke="#c8c8c8" points="1879.65,-218.434 1884.95,-218.557 1880.89,-215.158 1879.65,-218.434"/>
</g>
<!-- nid&#45;23&#45;ampin&#45;25&#45;&gt;nid&#45;23 -->
<g id="edge49" class="edge"><title>nid&#45;23&#45;ampin&#45;25&#45;&gt;nid&#45;23</title>
<path fill="none" stroke="#c8c8c8" d="M1607.02,-413.148C1622.96,-407.371 1642.91,-399.542 1660,-391 1744.89,-348.562 1838,-286.665 1885.77,-253.679"/>
<polygon fill="#c8c8c8" stroke="#c8c8c8" points="1886.86,-255.057 1889.97,-250.773 1884.87,-252.179 1886.86,-255.057"/>
</g>
<!-- nid&#45;23&#45;ampin&#45;26&#45;&gt;nid&#45;23 -->
<g id="edge50" class="edge"><title>nid&#45;23&#45;ampin&#45;26&#45;&gt;nid&#45;23</title>
<path fill="none" stroke="#c8c8c8" d="M1605.25,-348.742C1665.65,-326.003 1810.9,-271.321 1880.1,-245.268"/>
<polygon fill="#c8c8c8" stroke="#c8c8c8" points="1880.89,-246.842 1884.95,-243.443 1879.65,-243.566 1880.89,-246.842"/>
</g>
<!-- nid&#45;23&#45;ampin&#45;27&#45;&gt;nid&#45;23 -->
<g id="edge51" class="edge"><title>nid&#45;23&#45;ampin&#45;27&#45;&gt;nid&#45;23</title>
<path fill="none" stroke="#c8c8c8" d="M1619.01,-174.72C1684.17,-186.984 1810.64,-210.791 1876.25,-223.142"/>
<polygon fill="#c8c8c8" stroke="#c8c8c8" points="1876.02,-224.878 1881.25,-224.083 1876.66,-221.438 1876.02,-224.878"/>
</g>
<!-- nid&#45;23&#45;ampin&#45;29&#45;&gt;nid&#45;23 -->
<g id="edge52" class="edge"><title>nid&#45;23&#45;ampin&#45;29&#45;&gt;nid&#45;23</title>
<path fill="none" stroke="#c8c8c8" d="M1607.02,-48.8523C1622.96,-54.6287 1642.91,-62.4583 1660,-71 1744.89,-113.438 1838,-175.335 1885.77,-208.321"/>
<polygon fill="#c8c8c8" stroke="#c8c8c8" points="1884.87,-209.821 1889.97,-211.227 1886.86,-206.943 1884.87,-209.821"/>
</g>
<!-- nid&#45;23&#45;ampin&#45;11&#45;&gt;nid&#45;23 -->
<g id="edge53" class="edge"><title>nid&#45;23&#45;ampin&#45;11&#45;&gt;nid&#45;23</title>
<path fill="none" stroke="#c8c8c8" d="M1619.01,-287.28C1684.17,-275.016 1810.64,-251.209 1876.25,-238.858"/>
<polygon fill="#c8c8c8" stroke="#c8c8c8" points="1876.66,-240.562 1881.25,-237.917 1876.02,-237.122 1876.66,-240.562"/>
</g>
<!-- nid&#45;23&#45;ampin&#45;18&#45;&gt;nid&#45;23 -->
<g id="edge54" class="edge"><title>nid&#45;23&#45;ampin&#45;18&#45;&gt;nid&#45;23</title>
<path fill="none" stroke="#0000ff" d="M1660.3,-231C1726.37,-231 1816.77,-231 1871.07,-231"/>
<polygon fill="#0000ff" stroke="#0000ff" points="1871.21,-232.75 1876.21,-231 1871.21,-229.25 1871.21,-232.75"/>
</g>
</g>
</svg>
